<?xml version="1.0" encoding="utf-8"?>

<!DOCTYPE svg PUBLIC "-//W3C//DTD SVG 1.1//EN" "http://www.w3.org/Graphics/SVG/1.1/DTD/svg11.dtd">
<svg version="1.1" id="Layer_1" xmlns="http://www.w3.org/2000/svg" xmlns:xlink="http://www.w3.org/1999/xlink" x="0px" y="0px"
	 viewBox="-631.4562 -458.7357 2742.4146 2001.4672" enable-background="new -631.4562 -458.7357 2742.4146 2001.4672"
	 xml:space="preserve">
<path d="M131.0074,1471.167c-22.0798,0-3.8285-56.4351,2.0699-66.8582c12.8066-22.6301,33.6444-33.1873,56.0453-44.028
	c8.8018-4.2595,11.2908-4.7706,8.0693-13.5919c-3.6298-9.9396-10.9812-27.917-22.6618-30.4641
	c-23.9172-5.2157-50.2994,5.5979-73.9812-2.7603c-23.0022-8.1183-38.4619-34.4071-50.9396-53.7723
	c-7.2313-11.223-15.3119-21.8643-23.4685-32.423c-4.3695-5.6563-8.5802-9.588-4.2536-16.6921
	c7.8103-8.9377,18.9675-13.8875,29.2441-19.3362c11.9179-6.319,13.5149-14.0902,15.6041-26.5387
	c1.9829-11.8152,14.3324-16.4652,20.269-26.1476c5.663-8.9286,12.9437-16.6619,20.1016-24.3896
	c-10.634-8.2454-22.0605-11.4816-34.9614-14.6327c-17.6323-4.3068-34.9847-10.6271-52.1092-16.5939
	c-33.0755-11.5249-66.3255-24.4545-96.4763-42.3314c-12.6881-7.5231-25.0522-15.209-36.791-24.1569
	c-13.1346-10.0073-20.5729-3.4763-29.7881,7.542c-8.4277,10.6694-18.3881,27.4346-30.0621,34.6018
	c-3.5413,2.1742-6.8298-0.9326-8.0209-4.3984c-3.1026-9.0283,2.2073-17.9308,6.1317-25.6671
	c6.1109-12.0468,15.7318-25.096,17.0459-38.9061c1.4006-14.7191-15.2147-26.2043-23.5162-36.5636
	c-4.6837-5.8447-8.5645-8.7737-16.1483-9.4054c-4.9348,0.6742-2.4139-0.7445-5.1328,3.3242
	c-6.153,17.5104-0.445,36.6772-6.8834,54.7158c-11.2003,31.3797-38.3226,53.1883-67.7796,66.5558
	c-31.48,14.2856-62.4641,12.0228-96.114,12.068c-13.3094,0.0178-26.2656-0.2994-39.4109,2.0881
	c-11.6273,2.1112-23.6519,1.0681-35.0101,4.551c-6.7635,2.074-13.1753,5.14-19.3625,8.5382
	c-3.1018,1.7036-8.7219,6.8036-12.2216,7.0983c-7.6977,0.6482-10.2323-7.5453-10.3928-14.3514
	c-1.2411-52.6401,14.2477-109.3198,47.9466-150.6375c33.4483-41.0106,89.0557-74.9515,142.395-79.1932
	c12.7209-1.0116,47.5746,5.0552,51.9126-8.6577c0.6538-21.0355-10.5611-46.7354-21.0742-64.6182
	c-19.3708,21.5912-28.6539,49.4277-58.7512,59.3006c-31.7394,10.4116-69.3308,2.1012-98.3209-11.9884
	c-25.3842-12.3371-54.1371-35.3745-83.4216-34.4968c-7.1709-0.3004-14.8562,0.9726-21.7906-1.375
	c-8.7775-2.9716-2.1755-16.4575,0.4077-21.9697c8.0536-16.0515,20.3267-32.1115,32.9245-44.9205
	c47.9723-48.7769,126.5254-66.5045,190.8275-41.5883c9.2515,3.3272,20.5378,12.7608,29.1107,3.8755
	c7.5574-7.8328,6.5284-24.7033-3.3083-30.0608c-13.8491-7.5428-31.8248-7.1434-46.8059-11.2877
	c-6.8578-1.8971-13.8162-4.6024-12.3333-13.0341c1.578-8.9727,16.0445-6.991,23.0553-7.0707
	c12.6182-0.1432,28.6647,2.5353,40.526-3.2406c10.1741-4.9543,8.9059-24.6406,10.3582-34.17
	c5.2467-34.4269,13.1857-68.5596,25.5413-101.1661c12.8539-33.9214,29.1798-66.7202,50.002-96.4818
	c3.0944-4.4229,13.9528-16.2885,9.975-20.9463c-11.9558-13.9997-25.8761-26.0188-39.4636-38.3734
	c-8.8415-8.0393-32.918-24.5562-28.3023-38.5262c4.5026-13.6273,37.3644,11.5586,42.2155,14.5595
	c12.4739,7.7164,25.0546,15.2131,37.3247,23.2499c12.2242,8.0067,22.5633,7.8181,33.7995-1.2875
	c24.6187-21.5976,53.6266-36.9497,78.5703-57.963c27.5742-23.2294,54.1197-48.1285,80.5381-72.6581
	c35.8046-33.2447,70.6257-74.7849,88.0062-120.8858c18.3025-48.5464,14.9255-106.5696-7.9761-153.1725
	c-18.0075-36.6439-47.6746-67.5169-85.5375-83.8709c-40.021-17.2861-86.0273-10.9932-125.4086,4.7593
	c16.0067,14.1687,36.4588,15.1482,55.5033,23.7008c22.1517,9.9479,40.2244,28.8605,47.5604,52.3379
	C3.6267-49.5562-0.6785-21.3578-9.1576,1.8755c-10.2182,27.9987-32.6864,59.1486-28.776,90.2373
	c0.4765,9.5041,7.1533,26.5723-7.623,26.5752c-12.3211,0-24.8321-9.2602-34.8946-15.3923
	c-23.6711-14.4253-44.2883-33.3703-60.4226-55.9163c-16.8699-23.5738-25.4276-56.1111-27.1958-84.8075
	c-0.8708-14.1331-1.4414-29.4536,1.732-43.3545c2.5702-11.2588,4.2485-21.6858,4.1624-33.2149
	c-27.6261,14.6093-42.1284,40.463-53.3043,68.8846c-6.8693,17.4693-9.7194,35.1063-11.5698,53.6851
	c-0.8317,8.3506-1.0034,34.208-16.0547,26.2481c-6.2916-3.3273-5.5018-14.1586-5.4949-20.0624
	c0.0097-7.8156-0.3922-15.2494-3.9438-22.3749c-4.3265-8.6798-25.4513,9.548-31.1816,12.3622
	c-28.9366,14.4382-59.6616,7.737-89.3103-1.3965c-17.2976-5.3286-34.4247-11.3036-52.095-15.3245
	c-4.6557-1.0594-15.6233-1.377-18.418-6.2306c-1.4846-9.2922-0.4478-18.2341,2.417-27.1343
	c4.3852-14.1526,10.0099-24.8792,3.7609-39.353c-3.4518-7.9951-7.6098-14.5975-4.839-23.3496
	c2.5908-8.1834,4.4353-15.0055,4.2935-23.6479c-0.1334-8.1263-2.0581-17.023,3.481-23.7063
	c4.4735-5.3975,8.6928-9.951,10.907-16.8134c1.609-4.9866,2.5143-10.174,6.1352-14.1781
	c6.8575-6.9669,17.3893-8.7437,25.2192-14.3521c6.6999-7.6775,2.0863-19.6711,6.5465-28.5487
	c7.9375-15.7986,23.5321-2.7846,34.275,2.7783c19.022,9.85,38.803,15.4598,58.4831,23.5074
	c12.1563,4.9709,23.3712,9.3797,36.2506,11.9262c-8.3921-16.3987-20.466-28.3912-31.8849-42.6858
	c-15.4959-19.3983-26.2843-45.1152-30.2494-69.6858c-1.8703-11.59-0.8362-23.894-0.9279-35.5923
	c-0.1011-12.8921-1.9988-28.3735,2.4313-40.7224c2.5916-7.2238,10.7934-8.9584,17.2941-5.6282
	c12.0893,6.1933,20.4041,15.9794,33.8034,20.3419c47.3906,15.429,99.7427,10.4048,135.6365,51.1341
	c17.4167,19.763,24.583,43.9931,19.9808,70.0129c-1.73,9.7812-4.7655,19.3306-8.7324,28.4291
	c-4.42,9.2642-3.172,19.5539-2.3916,29.4229c52.371-14.8118,105.8539-19.8194,157.3804,1.3916
	c2.6772,1.1023,23.8751,8.5799,24.2977,3.3871c1.0384-12.7608-2.0117-25.1986-2.0995-37.951
	c-0.1652-24.1344,3.7073-51.5789,15.1978-73.0898c12.1215-23.4856,31.4694-43.8564,53.816-57.9264
	c7.2184-4.5449,17.5951-11.6093,26.603-11.6093c13.9531,0,9.6233,18.3509,10.9089,27.982
	c3.7529,28.1145,21.2314,51.7079,29.8453,78.3576c3.9875,12.3366,6.769,25.8777,5.4813,38.9096
	c-0.983,9.9482-2.5151,19.3756-2.1788,29.408c12.1716-3.2647,21.5266-9.2386,32.2628-15.6227
	c13.6957-8.1438,28.4896-12.3022,43.6196-16.9256c16.6898-5.1,33.6413-3.7548,50.846-4.1976
	c9.4392-0.2429,31.7918-3.8723,35.5535,8.0941c3.8526,12.2553-15.6215,28.0246-19.2358,39.5295
	c-5.6505,17.9863-6.1696,36.9441-10.0593,55.2697c-4.6919,30.8698-10.5957,62.8105-34.097,85.5146
	c-22.3175,21.5605-52.3096,29.808-82.7331,22.1296c-15.7456-3.9739-30.2771-11.24-46.9245-10.2065
	c-5.1225,0.318-3.5788,4.3933-3.7148,9.2203c-0.2944,10.4458,0.2243,20.9058-0.354,31.3449
	c-1.7551,31.6822-11.4506,59.0412-25.0337,87.6087c-15.385,32.3571-32.6324,63.8795-54.2022,92.5397
	c-8.559,11.3725-18.5734,21.5455-27.0828,32.9771c10.7179,5.8457,18.4879,4.5392,30.1093,2.5446
	c17.6367-3.0271,36.3167-3.7401,54.1693-5.7883c17.3971-1.996,35.8452-2.5331,53.3543-2.5331
	c10.2253,0,18.7446-0.4624,23.7246-10.7763c6.2397-12.9227,4.0988-29.7912,13.5049-41.1725
	c10.3619-8.231,14.3434,3.2524,15.5044,12.0518c0.9082,6.8834-0.7493,38.4871,7.304,40.6435
	c16.711,4.4746,33.8696,6.2289,50.9275,8.8213c16.7144,4.0229,33.3858,8.2588,49.8412,13.2487
	c16.4588,4.991,33.0337,13.8157,50.2244,15.5853c16.3782,1.6859,32.459-2.1131,48.4819-4.8917
	c18.4891-3.2062,35.4246-7.0415,52.1938-15.7824c27.5654-14.3683,49.6831-35.0443,55.8036-66.9066
	c4.7427-24.6897-0.5363-52.3503-22.3257-66.5009c-5.4579,16.6212-6.9348,36.339-21.1509,48.2977
	c-19.0472,16.0227-44.2753,12.2269-67.2705,13.5612c-10.8586,1.1402-20.8786,7.5561-31.8218,7.5571
	c-10.4274,0-8.1736-20.215-7.091-27.2393c3.1562-20.4784,14.8802-36.8635,21.299-56.1215
	c-7.0304,0.2682-27.5114,6.1069-30.4675-0.8094c-5.2849-12.3651,15.7273-24.1534,23.4186-28.4261
	c14.5143-8.063,29.1066-11.9773,45.4877-13.6561c5.6465-0.5787,11.1563-1.8993,16.6499-3.2774
	c3.4465-0.8646,0.5383-13.8787-0.0756-16.153c-4.2219-15.6416-6.4478-27.8463-6.545-44.2556
	c-0.014-17.3053,7.4312-33.8397,17.6914-47.4623c8.6354-11.4653,21.9288-24.3719,31.7605-6.2257
	c8.8194,16.2778,21.3918,27.7194,32.515,42.3017c8.7433,11.4623,15.9068,25.1099,14.8997,39.9258
	c-1.3288,19.5474-13.2044,29.5097-26.2199,42.1775c-1.2252,1.1925-8.9271,7.9091-7.4874,10.0485
	c3.6361,5.4031,7.6996,10.342,12.2032,15.0498c10.2277,10.6913,19.5564,21.3947,25.5451,35.0974
	c13.0259,29.805,9.6467,62.2029-2.4203,91.5436c-12.2047,29.6756-44.2501,51.5111-72.0251,64.4854
	c-11.9674,5.5902-29.6941,9.529-37.0257,21.325c-4.3599,7.0147,22.0848,22.0199,27.7826,25.6747
	c12.4743,8.0015,25.2504,15.5114,37.7014,23.5545c5.5495,3.5849,12.6592,8.6877,19.5609,8.6877
	c8.6898,0,16.3554-7.7305,22.7954-12.7129c2.7574-2.1332,32.8395-24.7596,32.8672-10.3828
	c5.1031,11.531-14.7866,30.4584-20.3157,38.9538c-3.7391,5.7451-6.2696,8.1143-4.2985,13.4618
	c5.2358,6.7666,11.0991,13.0121,17.0399,19.157c12.0099,12.4226,23.6791,25.1329,34.7932,38.3701
	c47.9541,57.1147,83.2302,127.082,139.8996,176.3458c26.7886,23.2878,58.2899,40.8251,93.1324,48.3719
	c28.3265,6.1354,55.0698,2.4664,82.3374-6.623c31.7746-10.5919,58.6853-31.7944,76.7005-60.1195
	c17.913-28.1644,21.2828-61.1898,16.7194-93.79c-2.4651-17.6105-8.4382-34.8607-16.1123-50.8434
	c-2.6554-5.5302-16.3428-35.5207-23.9515-28.6007c-9.5131,8.6521-5.8379,20.001-7.4129,31.2638
	c-2.2114,15.8144-11.7964,30.0054-24.7107,39.1565c-28.8087,20.4139-65.2596,11.0953-97.8868,16.4427
	c-12.4186,2.0354-25.9828,11.0504-38.7272,7.7796c-9.1028-6.15-0.9731-38.9995,1.0905-47.2901
	c1.1975-4.8111,14.2695-36.553,12.6063-37.6713c-12.4319-8.359-28.491-2.8875-42.7197-2.7375
	c-18.2974,0.1928-36.7533,3.2292-54.8843,3.2292c-17.2166,0-10.2962-27.0242-10.9675-38.0806
	c-0.7936-13.0709-13.0857-20.8003-15.4299-33.9141c-1.4602-8.1684-2.8306-16.3603-4.7628-24.4345
	c-2.0038-7.8256,2.77-16.9683,4.4437-24.5343c1.5234-6.8864,2.5803-12.8174,6.3649-18.8495
	c3.9025-5.0175,8.0509-10.1129,7.6133-16.8984c0.6025-5.7726-0.2064-14.1118,4.0019-18.8066
	c4.9667-5.5409,19.2132-1.4016,25.3633-0.2217c30.6714,5.8812,66.8383-3.949,90.6282,21.7214
	c10.6869,11.5316,18.7606,25.1404,24.7876,39.6191c4.6188,11.0956,6.8052,23.9937,21.0792,25.0952
	c9.7084,0.7492,19.9946,1.0869,29.5944-0.4045c9.9397-1.5442,5.1404-18.2715,3.288-24.2552
	c-10.809-34.9151-13.2102-70.1574,4.144-103.4547c7.1199-13.6608,17.8132-28.6268,30.0932-38.1245
	c15.847-12.2567,20.5331,15.443,26.6402,24.6197c17.2379,25.9023,44.644,42.047,54.7635,72.8557
	c4.673,14.2269,4.8611,30.4122,0.0608,44.6612c-5.2559,15.6014-18.0569,26.3743-30.8523,35.9019
	c-4.3337,3.2269-19.8779,13.5143-14.1168,19.5181c10.294,10.7276,21.722,20.0264,31.2136,31.5551
	c42.8214,52.0124,53.2125,129.0481,26.376,190.995c-13.0845,30.2031-34.75,56.7229-61.9782,75.2605
	c-31.307,21.3146-64.9482,30.1202-102.4509,30.1202c-34.7805,0-65.3394-6.3044-96.2292-22.7071
	c-28.8611-15.3254-52.0684-37.8855-79.8059-54.707c3.0071,30.906,20.22,58.8408,36.6324,84.7002
	c8.8744,13.9825,17.8865,28.8536,30.1625,40.1299c4.3214,2.5802,1.6747,2.0361,6.1992,1.4004
	c8.3328-4.0411,16.1111-9.0941,23.8716-14.1182c4.3356-2.8069,9.2233-4.392,14.3983-2.8572
	c7.8541,2.3293,2.7503,12.7186-0.9359,16.9873c-4.7738,5.5281-10.4575,10.2236-14.5439,16.3396
	c-6.0207,8.8688,0.4058,14.7936,6.9446,20.3856c24.888,21.2841,54.5203,36.6376,85.6968,46.3989
	c61.5906,19.2838,129.1458,18.4625,187.0909-11.6885c9.0742-4.7216,23.8702-10.7862,29.6617-20.0981
	c8.3693-13.4564-14.2218-28.2535-7.439-40.5603c5.2749-9.5709,19.1664-0.6383,24.0273,4.4004
	c15.0426,15.5805,24.7145,3.9551,36.9762-8.799c24.6636-25.6542,47.5503-54.0414,67.6758-83.391
	c9.8304-14.3361,17.7195-25.2366,2.6425-38.6776c-5.6339-5.0225-11.7549-9.546-16.8962-15.101
	c-5.6676-6.1234-5.7866-14.1548-9.3999-21.3378c-4.5447-9.0347-18.0209-9.6073-26.176-14.5004
	c-12.71-7.063-22.9698-17.6891-30.1783-30.2806c-17.4976-30.5641-14.2855-66.3738-7.9285-99.5873
	c3.4855-18.2106,8.7477-36.4213,10.1859-54.9518c1.2527-16.1392-7.8187-34.5936-3.749-49.9328
	c12.2089-7.5864,33.6288,2.1803,45.5104,6.6723c16.9341,6.4021,32.9989,15.1689,47.4183,26.127
	c27.536,22.0277,46.0206,46.2548,58.0488,79.5984c6.0179,16.6826,10.7188,34.5571,11.1591,52.358
	c0.1827,7.3892,0.0923,14.7787,0.438,22.1644c0.248,5.2974,6.3114,3.84,11.1334,4.2825
	c6.7601-1.0479,12.8258-9.5192,17.9698-14.3024c10.7188-9.967,21.325-20.055,31.8221-30.255
	c21.1429-20.5444,42.1361-41.1283,63.7427-61.1935c37.5811-34.9001,77.694-70.7276,88.6617-123.1936
	c9.6383-46.1063-6.0625-96.4183-47.0504-122.4754c-41.5315-26.4026-83.7721-13.0052-124.3403,7.8642
	c5.0385,2.7459,10.019,5.9369,15.6498,7.3136c10.8723,2.6582,21.5096,1.8237,31.9567,6.6344
	c19.7484,9.0939,33.4701,28.0847,37.2439,49.3179c3.8147,21.4627-0.6772,42.9597-0.8297,64.4671
	c-0.0981,13.8326,6.7932,25.8462,7.2987,39.1744c0.3757,9.9044-7.0903,9.5123-14.8672,9.7796
	c-22.2345,0.8766-43.6659-7.4674-61.8666-19.7502c-20.963-14.1469-32.7063-31.6937-44.6622-53.5128
	c-4.14-7.5554-5.0415-13.5512-13.8093-9.3682c-5.8815,2.8059-10.2194,12.1131-17.2722,11.2098
	c-13.7815-0.5925-7.6648-45.5822-8.0059-55.1011c-13.3999,1.7264-25.6996,6.4808-38.7047,9.8156
	c-14.2117,3.6443-29.0009,4.2818-43.6168,3.0042c-32.12-2.8076-64.3099-20.3641-84.7471-45.3675
	c-9.3004-11.3784-4.6572-17.6027,6.9924-22.1035c13.6464-5.2722,25.8942-10.697,37.3252-19.9684
	c13.3235-10.9429,26.8267-22.0889,42.4664-29.6026c13.4891-6.4805,29.6637-6.701,44.3806-5.4676
	c15.0802,1.2639,28.6976,10.3096,37.9918,21.9042c6.2136,7.4551,13.6145,29.1172,22.6328,30.8857
	c13.8071-0.1297,24.2828-14.0883,34.8202-21.3912c14.4255-9.9975,34.6432-18.174,51.9408-20.9926
	c64.1676-10.4559,127.1295,18.797,154.8584,78.5334c13.0607,28.1368,15.2924,63.0324,7.9569,93.1099
	c-3.6226,14.8533-14.7537,30.688-9.0167,45.6375c3.2936,4.5747,0.1034,2.9953,5.793,3.083
	c9.1957-2.1208,17.7911-6.0895,26.3008-10.064c6.3875-2.983,24.2501-8.1181,26.0093-15.7183
	c3.665-15.8343-4.8749-34.7191-8.136-50.2106c-6.1157-29.0515-8.2689-62.6189,1.5743-91.0859
	c11.9767-34.6364,40.9458-58.5178,69.67-79.247c29.4462-21.2503,58.4899-41.2567,84.4526-66.8052
	c12.859-12.9712,21.7805-9.8387,32.6945,3.8108c9.4769,11.8522,19.8761,24.2616,24.9813,38.7395
	c2.3162,6.6847,5.2402,13.1973,9.3271,18.9995c3.3693,3.0002,5.8503,2.1013,10.9658,1.9592
	c16.5112-0.4585,30.5184-0.4756,45.8176,6.8137c7.8417,3.7362,9.6486,9.5325,12.8258,17.2837
	c4.3694,10.6597,11.7806,15.532,22.2482,19.3189c8.7539,3.1658,19.1619,7.7043,23.4482,16.6128
	c4.2795,11.5595,0.7677,24.568,2.0088,36.5439c0.5597,5.3998,8.673,8.0462,12.9082,9.2988
	c11.355,3.3589,8.6597,22.4532,6.8748,32.0232c-1.4316,7.6763-5.219,15.0042-6.1615,22.751
	c-1.4479,11.8998,13.4845,17.7456,20.8409,24.2705c7.3965,6.5604,15.8781,17.2981,15.759,27.7049
	c-0.1213,10.6136-15.6975,13.597-23.6965,16.6047c-24.4269,9.1848-45.9542,24.2527-67.1577,39.1584
	c-21.2803,14.9586-41.9573,32.355-66.1566,42.4602c-15.964,6.6662-31.6854,7.1524-44.9889,19.2581
	c11.8567,6.57,23.8773,12.7523,36.145,18.5259c14.5844,6.864,30.0778,15.7946,46.0813,18.645
	c8.5488,1.5226,31.429-3.9794,36.3805,3.5491c8.7657,13.3275-10.0634,37.1655-17.3651,47.4069
	c-40.6376,56.9977-106.4557,80.1276-174.7637,71.8016c-9.2482-1.1273-17.6301-4.2399-26.5842-6.5254
	c-2.9008-0.7405-14.0544-4.6246-17.0032-2.7567c-3.1655,2.0053-3.6646,13.3373-3.8486,16.3833
	c-0.6052,10.0165,1.4701,20.2345-0.5225,30.1587c-2.4912,31.0535-9.3672,61.4433-27.0363,87.6292
	c-4.709,6.9787-9.73,13.7505-14.1229,20.9391c-2.166,4.9348-3.0145,3.3284,1.501,6.7734
	c6.8326,4.5358,14.8595,4.4665,22.6949,5.2023c7.5598,0.71,15.1543,3.6852,21.9929,6.8233
	c31.0353,14.2415,41.6677,48.4294,57.411,75.9687c4.8844,8.5443,23.41,29.8602,15.6892,40.1844
	c-9.7758,11.5723-25.3983,11.4219-37.5765,18.5953c-6.004,3.5366-8.5371,10.1343-11.0416,16.2973
	c-3.587,8.8219-7.3433,13.0186-15.8311,17.2363c-7.014,3.4853-12.6223,7.5586-17.9023,13.3818
	c-6.2203,6.8613-10.6355,7.4412-19.5986,8.4766c-7.7213,0.7973-14.6151,4.7708-22.2423,5.7267
	c-7.9012,0.9902-15.8479-0.9421-23.7699-0.5132c-15.6808,0.8489-31.3591,18.4106-39.1086-3.9987
	c-5.4863-15.8648-9.9633-31.1907-17.2893-46.452c-8.0328-16.7333-16.8447-35.0872-17.4111-54.0021
	c-0.433-14.458,8.1385-26.0753,10.755-39.8145c0.3578-1.879,1.9962-12.4609-0.877-12.5163
	c-7.9489-0.1533-15.8567,0.5614-23.799,0.5614c-4.2112,0-11.8026,0.9817-13.1711-4.3337
	c-2.2186-8.6174,2.0828-12.8637,9.8834-15.1617c16.7401-4.9314,33.1302-9.6711,48.5593-18.0678
	c28.5101-15.5157,50.8729-39.9871,63.3972-69.9607c6.2555-14.9709,11.3381-29.924,10.4396-46.3628
	c-1.5238-5.0015,0.991-4.3627-4.959-4.7266c-7.4429,0-11.4684,5.6017-15.5518,10.8994
	c-29.238,37.8463-66.4816,66.3373-115.0205,72.2881c-20.2384,3.1245-42.1157,3.9188-62.3931,0.343
	c-8.0829-1.4254-26.0706-1.9283-27.0094-12.4545c-1.1849-13.285,11.7698-20.4996,17.4171-31.4558
	c21.9441-41.5569,18.2184-93.6622,50.6667-130.2469c14.5054-16.3544,35.5122-29.6522,57.7831-31.0494
	c10.9653-0.6879,23.0037,3.124,33.6084,1.4095c5.1772-0.837,10.3346-2.0279,15.4896-3.0009
	c-47.1573-37.5593-107.5851-39.231-160.7911-12.0217c-15.3502,7.8499-29.5399,17.8515-42.5483,29.1385
	c-3.3945,2.9454-8.7662,6.3704-9.6532,11.2849c-1.2053,6.678,4.9547,9.4586,8.4341,13.774
	c7.0038,6.7983,18.6792,14.0483,18.6592,24.9414c0.9946,17.1209-24.189,1.9653-30.528-1.6507
	c-5.5135-3.145-11.3214-5.9839-17.6842-6.8454c-7.0149-0.9497-7.0328,0.2012-10.9005,5.9076
	c-10.9283,16.1235-21.248,32.6492-31.4095,49.2634c-9.9264,16.2297-19.7025,32.5517-29.7715,48.6939
	c-3.6244,5.8104-19.5007,24.7549-12.4861,31.5828c7.1827,6.9914,33.5946,20.5939,24.0874,34.2251
	c-11.3228,7.1459-29.4237-4.8934-40.0867-8.1474c-6.3225-1.9294-6.7046-1.7-11.5399,2.8325
	c-6.123,5.7395-11.2427,12.4042-16.5316,18.8888c-8.098,9.9287-16.6832,18.2484-22.7188,29.6732
	c29.0098,7.7718,58.9772,3.2622,88.2959,10.96c34.7073,9.1124,64.9775,30.2286,86.7095,58.8349
	c9.5646,12.5899,18.2791,26.7722,25.605,40.7715c6.212,11.871,15.4991,31.7042-5.1289,31.7042
	c-13.016,0-26.0602-1.8325-38.8575,1.3767c-15.3546,3.8505-30.5509,9.7183-45.4229,15.1054
	c-15.9723,5.7857-32.1447,11.9194-49.1702,13.6507c-15.2159,1.5473-34.9099,2.6854-49.2584-2.9258
	c-30.1772-9.828-50.2346-31.722-59.2021-62.2978c-4.5981-15.6777-4.4799-32.312-9.3662-47.9297
	c-7.8857-11.4911-23.9384-1.182-32.7393,4.3252c-13.5962,8.5593-4.5725,26.3119-2.417,38.2576
	c1.1512,6.3804,1.0001,14.3314-6.9292,15.3188c-8.6299,1.0746-13.1385-9.0752-16.7446-15.4084
	c-8.7676-15.4042-13.2197-18.9583-30.9114-17.5148c-16.5167,1.3476-34.6257,3.212-50.3318,8.4699
	c16.6979,25.7169,40.9044,42.2007,51.3943,72.2751c9.1489,26.2299,6.4591,59.4142-5.0516,84.6057
	c-11.9231,26.0941-33.4987,48.0604-59.6757,59.4756c-6.5309,2.8473-12.9142,5.8182-18.8171,9.8458
	c-4.176,2.8494-1.1534,5.3627,1.5363,9.3052c10.8043,15.8364,21.8267,26.4148,23.2037,46.9146
	c2.1264,31.657-17.8864,54.9609-40.1911,74.6918c-11.8102,10.4474-24.0699,20.9595-30.0248,35.8979
	c-3.4854,8.7451-6.3885,12.5059-16.306,11.0718c-5.9808-0.8647-9.5923-5.3607-13.0531-9.923
	c-19.9913-26.3536-26.2997-58.7267-24.2734-90.9397c0.9077-14.4309,5.9794-27.948,11.6464-41.1387
	c6.4011-14.899,18.5535-26.0397,26.7186-39.9161c-26.8592-16.2987-58.5508-33.6238-68.0038-66.3322
	c-2.1135-7.3127-2.8247-19.7931,8.6689-15.7905c8.2132,2.8601,15.9257,15.6938,22.7187,21.8063
	c0.8418-27.4746-11.7925-54.2405-3.6133-81.6074c2.2168-10.0217,27.4056-85.0209,45.3281-56.0172
	c3.8232,6.1872,6.2657,13.1384,10.9724,18.7819c5.6143,6.7318,13.0574,12.2621,19.8387,17.7498
	c13.4336,10.8708,27.5732,21.5359,37.3865,35.9984c8.5583,12.6131,13.9291,27.5221,14.1638,42.8417
	c-0.1802,7.5488-3.0122,14.0707-5.6565,21.0214c-2.3959,6.2977-1.2156,11.0371-0.0173,17.2677
	c29.6578-5.6996,37.3107-39.8314,37.0063-66.0634c-0.4343-37.4404-20.4061-63.8093-49.8497-84.9509
	c-30.1734-21.6656-68.8079-33.4973-103.8452-44.6738c-35.0399-11.1774-67.8148-27.3427-96.665-50.3151
	c-58.0405-46.2155-92.5649-111.0223-123.2976-177.0748c-3.6978-7.9477-7.8209-15.7008-12.4695-23.1349
	c-3.8217-3.4315-0.6298-2.2306-5.7529-2.1143c-9.195,2.9219-36.7473,20.4988-40.0469,3.5771
	c-2.263-11.6061,12.3332-19.6713,19.6158-26.4086c13.2864-12.2914,0.7936-27.7303-6.6187-39.8315
	c-38.0294-62.0867-81.1841-123.2151-138.687-168.9957c-54.6751-44.7955-115.9857-78.1336-184.1937-97.2212
	c-35.8274-10.0261-74.6956-15.7083-111.9497-15.0592c-35.2898,0.6148-73.1725,4.4384-107.1677,14.0685
	c-3.9827,2.5924-2.0771,0.085-3.6328,4.603c-0.401,9.6375,1.4846,19.1199,2.2098,28.6902
	c0.6862,9.0552-2.3035,13.5554-11.9408,10.1906c-6.6952-5.7695-9.2985-14.9741-14.2451-22.0708
	c-8.7492-12.5522-21.7094-7.1584-33.6564-2.0363c-14.7539,6.3256-29.4075,13.0602-43.3643,21.0112
	c-58.9078,33.5588-105.8369,85.6012-135.6091,146.2923c-15.6169,31.8354-26.5417,65.8578-33.2682,100.6471
	c-6.934,35.8619-6.4011,71.2466-6.375,107.5832c0.188,14.8644-1.237,31.0082,4.1138,45.2026
	c5.5704,14.777,23.3159,8.3414,34.7996,5.4001c17.0021-4.3546,34.1548-8.1373,51.4582-11.0881
	c4.1273-0.3195,7.7311-0.4013,11.1118,2.5088c1.7948,10.2687-0.0212,13.0167-9.0423,17.9773
	c-15.5459,8.5484-32.2212,14.7382-48.2983,22.1693c-7.5387,3.4844-14.9012,7.2833-22.0221,11.5605
	c-3.1769,1.9081-1.2855,13.5189-0.7985,16.7845c2.4579,16.4835,13.6687,34.2275,21.6157,48.6309
	c9.3669,16.9769,19.8525,33.5519,32.021,48.6714c22.2207,27.6096,49.8432,49.8787,78.6517,70.2413
	c14.0372,9.9219,30.1507,17.4636,45.5173,25.0949c11.5254,5.7238,27.6211,13.979,38.8555,2.7477
	c9.8642-9.8615,19.0564-21.6289,27.66-32.648c5.5714-7.1356,11.3944-14.0739,17.4256-20.825
	c4.1023-4.592,12.6853-17.5989,20.0639-16.1977c17.7984,5.4259,2.5686,26.7335-2.5924,36.9357
	c-7.6382,15.099-20.5652,32.1606-20.9203,49.493c-0.0774,3.7476-1.2232,5.2944,2.6713,6.3403
	c7.3619,1.9771,14.8012,3.6101,22.3251,4.84c19.1661,3.1331,38.6709,3.8354,58.0464,2.7791
	c33.5871-1.8312,68.3617-8.6611,100.7134-17.812c14.6401-4.141,31.0138-10.3646,44.0613-18.2713
	c14.9913-9.0847,25.4222-25.0482,35.4492-39.0108c20.0039-28.7088,37.1001-57.739,45.3306-92.0768
	c4.9157-20.5087,4.2228-40.301-5.9429-58.8646c-6.442,6.3886-9.7627,11.7224-10.4712,21.0869
	c-0.8472,11.1833-4.0605,20.903-9.4585,30.7698c-5.993,10.9543-12.578,21.6051-18.1194,32.8035
	c-6.2424,12.6149-6.8759,25.2977-11.0102,38.3561c-6.8902,21.7632-46.6048-16.2457-52.3035-23.4952
	c-17.1528-21.8207-28.2309-44.9752-30.0205-73.114c-0.629-9.8909,0.8439-19.9722-0.388-29.79
	c-1.1846-9.4404-3.2027-8.1492-11.9606-8.2791c-6.8831-0.1021-13.5031,23.3636-15.0816,28.8215
	c-1.8939,6.5485-2.6033,25.4572-10.1802,28.5291c-21.3158,4.8608-9.7068-42.1662-6.2192-52.683
	c7.386-22.2719,23.5778-40.0313,40.1977-55.9615c-8.76-9.0867-19.2106-15.6754-28.8575-23.695
	c-12.4877-10.3812-23.3028-23.558-30.9244-37.8979c-14.304-26.9127-14.853-63.4201-8.06-92.6586
	c1.8996-8.1761,5.7611-18.7534,16.1346-14.9976c7.0918,2.5676,11.7666,9.8149,17.9929,13.8521
	c6.7157,4.3546,14.8545,7.0313,22.3627,9.6546c30.9011,10.7964,64.2465,20.013,78.6948,52.8476
	c6.5532,14.8927,5.9782,31.8105,0.1045,46.8193c-2.7535,7.0359-6.2376,13.8486-6.8717,21.5061
	c0.6741,4.4283-0.3512,1.9557,2.8081,4.915c13.9295,6.7441,29.4868,5.6325,43.7881,11.498
	c13.3839,5.8719,25.5556,14.4018,35.7866,24.8268c20.427,20.8141,32.8741,48.9622,32.8887,78.2404
	c0.0139,27.7808-10.8748,53.8353-9.1968,81.2493c22.9599-8.6628,37.7738-31.5591,48.6242-52.7382
	c15.9052-31.0455,25.1173-67.4006,26.048-102.2239c0.9851-36.8572,0.1019-72.6387-9.3064-108.4998
	c-4.4612-17.0043-8.0399-35.5799-17.9132-50.4444c-3.8349-3.3486-0.7403-2.2446-5.7979-1.96
	c-9.6583,3.3376-18.685,8.1633-27.8063,12.7084c-8.5247,4.2478-32.1244,15.189-32.9271-1.6274
	c-0.2079-5.1106,9.1153-11.4073,12.4118-14.1671c7.4478-6.235,15.3163-11.9398,22.8994-18.0049
	c16.3437-13.0721,10.0073-23.2156-0.5336-38.9436c-9.6205-14.3548-20.4231-27.9874-33.0901-39.7863
	c-22.6776-23.8608-51.0145-43.4248-81.752-55.347c-16.8087-6.5196-33.9697-12.4748-51.7991-15.4821
	c-16.2655-2.7436-39.3387-8.889-55.3761-2.6963c-9.3312,3.6032-8.7617,16.8151-8.8309,24.9081
	c-0.0767,8.9727,0.1672,18.0069-1.1911,26.9073c-1.2658,8.8459,1.3329,18.863-2.3912,27.2468
	c-2.6784,6.0298-9.0614,7.4688-14.4828,3.387c-4.3977-5.7562-5.4635-14.7739-7.1489-21.6471
	c-3.4717-14.158-5.8138-29.2195-11.5401-42.7017c-5.5476-13.0615-15.7932-12.9-27.8803-9.3406
	c-17.179,5.0625-33.8311,11.1276-49.6075,19.6976c-28.4678,15.4641-53.7643,38.2903-70.861,65.9221
	C0.1857,554.8436-5.852,588.6469-5.4487,626.2803c0.3922,9.1481,10.1108,38.9937,2.7183,45.9891
	c-12.7436,12.0592-19.381-10.498-21.3647-18.0663c-8.833-33.7008-8.2633-72.6647-3.2198-106.9226
	c4.7212-32.0688,18.8288-59.4862,34.6883-87.1316c8.9093-15.5301-8.486-30.3583-17.0867-42.2676
	c-4.6861-6.4887-11.3817-14.6288-12.6766-22.7576c-0.5573-3.4988-0.2424-7.0641-0.118-10.5782
	c4.4713-2.144,10.1234-2.4666,14.3818,0.3994C6.9105,391.8347,19.2114,407.2,32.6724,416.728
	c12.4297,9.0732,29.9486-8.0674,40.502-13.7404c63.3822-34.0717,139.6981-40.0374,209.7599-26.8614
	c36.8288,6.9261,69.4665,19.9432,101.9667,38.4176c9.4341,5.3627,23.4802,18.7906,35.1464,18.7906
	c13.6169,0,23.4024-21.5297,38.2419-13.8757c10.5351,5.4339-6.7944,25.2846-10.0573,30.2434
	c-7.5021,10.9509,10.0388,24.2959,16.2902,31.5336c21.6769,25.0971,39.706,53.2733,53.8724,83.241
	c14.6175,30.9219,25.1362,63.7465,31.557,97.3315c3.1714,16.589,5.7916,33.5421,6.1987,50.4474
	c0.3755,15.5992-0.8387,31.3851,1.0099,46.9014c1.8336,15.4179,7.6003,17.025,21.411,22.0147
	c7.6124,2.7502,15.3958,5.2234,22.5554,9.0599c8.8106,4.7212,9.0439,8.2305,8.6791,17.7418
	c-3.9904,7.7926-19.6455,2.5112-26.5716,1.8962c-7.1883-0.6382-14.4078-0.46-21.6125-0.327
	c-6.7454,0.1245-7.6954,3.5216-10.5966,10.0842c-5.459,12.3484-7.8611,26.1124-12.2444,38.8958
	c-6.0073,17.5194-13.9412,34.334-23.152,50.3885c-18.3074,31.9099-41.7155,55.6075-66.9876,81.7437
	c-9.4895,9.8139-20.3372,18.11-29.8547,27.8525c-4.4001,4.5041-4.9272,5.0298-3.0796,11.1427
	c2.555,8.4536,7.9709,15.4767,12.8958,22.651c6.8712,10.0094,11.889,21.3746,19.7075,30.7074
	c8.7172,10.4055,22.5547,7.3712,34.8318,7.3712c34.9536,0,63.8366,21.5216,98.1638,23.4512
	c8.4736,0.4763,26.0665-3.9952,32.1135,3.458c7.6241,9.3971-7.9504,32.1251-13.0259,40.4109
	c-9.3286,15.2292-20.9586,28.048-34.2878,39.8372c-13.8802,12.2765-30.1703,18.6261-45.2303,28.9268
	c-7.1652,8.7998,6.6544,17.4995,12.4106,24.1035c11.7526,12.1335,20.7787,26.783,31.1252,40.0668
	c5.2319,6.7172,10.6777,14.1763,17.8551,18.9351c5.7579,3.8175,16.7971,6.6708,18.1431,14.188
	c2.7325,15.2609-14.7592,21.9271-26.1935,27.2822c-28.0384,13.1316-66.3362,16.1022-95.7482,5.7307
	c-16.5795-5.8463-31.851-13.9192-44.9828-25.6549c-6.4698-5.7819-16.6143-16.7023-24.2799-9.4834
	c-16.2546,26.5415-36.7113,49.8256-66.3195,61.447c-19.201,7.5365-41.3884,10.3273-61.9108,7.5917
	c-6.6524-0.8867-24.1974-5.8353-30.0676-1.0563c-6.4889,5.2827-2.7667,25.6394-4.9556,33.126
	c-4.701,18.9681-22.0189,31.2186-40.3056,35.5123c-11.6089,2.7257-23.5697,2.3153-35.3105,4.1066
	C157.4133,1464.3307,144.0055,1471.167,131.0074,1471.167z M314.7495,1266.3701c4.2518,16.3187,6.9102,33.0789,5.8794,49.9766
	c-0.8814,14.4478-9.1722,27.0308-11.8066,41.332c57.4906-5.0118,88.2912-59.4114,74.6394-113.1975
	c-16.1086-63.4656-84.1975-96.1952-137.0308-123.7793c-13.0206-6.798-26.291-14.8147-41.579-13.66
	c-1.8658,0.1409-7.5324-0.0281-7.4371,2.1854c0.2453,5.6993-0.032,11.6968,2.3387,17.0227
	c11.7148,28.9185,40.2425,53.7087,41.5614,86.1455c0.432,10.625-5.2406,22.2651,1.5919,31.9609
	c2.7236,3.0695,1.6369,4.3005,5.5574,2.0426c6.5829-3.7914,13.0403-7.8055,19.7118-11.4418
	c11.5988-6.3218,27.3898-13.5944,41.0093-10.0544C316.8725,1226.9009,312.5873,1259.0878,314.7495,1266.3701
	C319.7076,1285.3994,312.5015,1258.7988,314.7495,1266.3701z M213.771,1292.8477c-7.3559,0.4972-11.8879-0.6472-10.4101,8.1814
	c1.3252,7.9174,9.4663,8.8828,16.0381,9.1448c-0.1488-5.8936-0.2879-11.787-0.3804-17.6816
	C217.3643,1292.6042,215.3647,1292.4116,213.771,1292.8477z M419.875,1232.8359c0.2209,2.2798-0.0428,14.2122,1.9653,15.7471
	c1.2885,0.9847,8.4104-0.8157,10.1015-0.9797c4.6404-0.4501,9.177-11.5131,11.8018-15.5398
	c-8.1124-2.3071-16.2164-4.2968-24.5098-5.8447C419.4476,1228.4244,419.6613,1230.6302,419.875,1232.8359z M376.9663,1168.6113
	c2.9515,4.502,8.8162,6.6469,13.981,5.0765c6.5715-1.9979,8.1743-9.2294,10.0133-14.9764
	c4.1821-13.0691,5.9996-27.5404,14.5476-38.6798c5.2959-6.9014,14.7135-13.3521,17.7018-21.8866
	c3.8072-10.8733-14.8289-23.754-21.0778-30.4185c-5.7371-6.0458-19.4229-21.9237-28.2944-22.71
	c-3.8009-0.3369-11.0305,4.8234-14.3438,6.4797c-6.3511,3.175-12.5602,6.6213-18.7999,10.0071
	c-21.1062,11.4526-48.8042,17.5364-64.2386,36.4263C318.9572,1117.6726,352.0857,1139.3098,376.9663,1168.6113
	C379.2334,1172.0693,361.0469,1149.8633,376.9663,1168.6113z M1652.252,528.5542c3.9591,4.8952,9.8798,4.4517,15.4819,5.0493
	c5.0531,0.539,5.8691-7.1991,7.3118-11.4744c5.0488-14.9626,8.8457-30.0631,18.3459-43.0147
	c17.7192-24.1565,44.8898-27.9342,70.5371-39.6022c-17.6007-11.1621-36.77-19.2961-54.1936-30.7361
	c-11.0342-7.2449-21.9822-14.6381-32.5118-22.6052c-9.582-7.2501-20.3457-20.3648-33.1881-12.4283
	c-22.9615,14.1901-45.9391,28.3802-68.2217,43.6257c-19.3752,13.2563-39.2067,25.7362-55.8926,42.3655
	c21.8959,9.0069,45.5245,11.1455,67.3989,20.6229C1613.1606,491.5528,1632.6301,508.7993,1652.252,528.5542
	C1655.7979,532.9385,1650.8838,527.1768,1652.252,528.5542z M905.625,369.1328c-4.9549,0-11.5743-1.7316-11.9709,3.7248
	c-0.412,5.6672-0.9133,11.3266-1.4236,16.9856c15.6563-0.4327,25.9953-3.2276,34.123-17.3374
	C919.4593,370.6479,912.8398,369.1328,905.625,369.1328z M116.9761-125.0337c6.1228,11.3758,15.4309,20.6966,23.7051,30.499
	c8.2202-7.8721,11.3335-17.073,15.877-27.2305c4.9247-11.8342,11.7667-22.293,15.7949-34.5767
	C160.0951-154.0608,104.6065-146.3799,116.9761-125.0337C121.355-116.898,115.1231-128.2315,116.9761-125.0337z M-248.9585-182.1113
	c0.3261,13.5975,11.6263,24.766,15.3816,37.6151c4.1231,14.1077,6.0226,28.0773,11.7912,41.7228
	c15.8679-18.9864,32.6952-36.891,50.4014-54.1753c-11.5986-7.7789-24.0497-10.8872-37.0983-15.3775
	c-13.9325-4.7946-27.0956-11.7896-40.6615-17.5253C-249.0822-187.2715-249.0203-184.6914-248.9585-182.1113z"/>
</svg>
